<?xml version="1.0"?>
<svg width="1024" height="1024" xmlns="http://www.w3.org/2000/svg" xmlns:svg="http://www.w3.org/2000/svg">
 <g class="layer">
  <title>Layer 1</title>
  <path d="m0,0l1024,0l0,1024l-1024,0l0,-1024z" fill="#1E1E1E" id="svg_1" transform="matrix(1 0 0 1 0 0)"/>
  <path d="m429.74,579.25c2.16,-0.51 4.64,-0.28 6.87,-0.28l13.16,0.01l53.16,0.17c0.01,2.48 0.7,8.35 -0.43,10.34l-1.37,0.18l-49.69,-0.05l-13.51,-0.03c-2.22,-0.01 -4.86,0.23 -7.02,-0.14c-1.57,-0.28 -2.8,-1.33 -3.6,-2.67c-0.81,-1.35 -1.07,-3.36 -0.56,-4.86c0.48,-1.41 1.77,-2.03 2.99,-2.67z" fill="#515151" id="svg_2" transform="matrix(1 0 0 1 0 0)"/>
  <path d="m678.68,317.6c3.98,-0.24 7.48,0.71 10.96,2.64c4.26,2.37 7.61,6.3 8.84,11.1c1.19,4.68 0.51,10.03 -1.97,14.16c-3.2,5.33 -8,7.58 -13.78,9.06c-4.12,0.06 -8.35,-0.29 -12.04,-2.35c-4.05,-2.27 -7.52,-6.78 -8.7,-11.26c-1.22,-4.63 -0.17,-10.64 2.37,-14.64c3.39,-5.32 8.35,-7.52 14.32,-8.71z" fill="white" id="svg_3"/>
  <path d="m340.92,648.55c4.6,-0.43 9.41,-0.34 13.6,1.83c4.64,2.42 8.04,7 9.41,12.04c1.4,5.12 0.28,11.39 -2.56,15.83c-2.78,4.35 -6.76,6.82 -11.68,8.05c-5.07,0.84 -9.72,0.78 -14.39,-1.69c-4.66,-2.46 -7.86,-7.05 -9.32,-12.03c-1.45,-4.99 -0.66,-10.26 1.84,-14.75c2.91,-5.21 7.6,-7.69 13.1,-9.28z" fill="#515151" id="svg_4" transform="matrix(1 0 0 1 0 0)"/>
  <path d="m379.27,655.75c3.56,-0.68 7.93,-0.22 11.58,-0.21l23.63,0.07l88.46,0.31c0.02,2.49 0.66,7.9 -0.49,9.95l-2.32,0.14l-91.7,0.01l-21.32,0.03c-2.38,0 -6.01,0.44 -8.21,-0.19c-1.05,-0.3 -2.19,-1.67 -2.62,-2.65c-0.74,-1.68 -0.77,-3.16 -0.03,-4.84c0.61,-1.38 1.71,-2.04 3.02,-2.62z" fill="#515151" id="svg_5" transform="matrix(1 0 0 1 0 0)"/>
  <path d="m522.98,360.52l128.6,-0.2l-0.01,10.34l-128.58,0.28l-0.01,-10.42z" fill="#515151" id="svg_6" transform="matrix(1 0 0 1 0 0)"/>
  <path d="m523,323.11l128.5,-0.1l0.01,11.01l-128.53,0.02l0.02,-10.93z" fill="#515151" id="svg_7"/>
  <path d="m371.86,690.25c3.43,-1.04 8.45,-0.43 12.09,-0.43l23.77,0.04l94.78,0.17c0,3.51 0.24,7.24 -0.26,10.71l-1.99,0.3l-87.39,-0.04l-26.17,0.01c-4.06,-0.01 -8.44,0.35 -12.45,-0.1c-1,-0.11 -2.07,-0.53 -2.81,-1.23c-1.09,-1.01 -1.91,-2.59 -1.97,-4.05c-0.1,-2.5 0.74,-3.61 2.4,-5.38z" fill="#515151" id="svg_8" transform="matrix(1 0 0 1 0 0)"/>
  <path d="m370.2,569.25c0.34,-0.08 1.34,-0.25 1.66,-0.1c1.1,0.49 2.89,2.54 3.85,3.39l14.67,13.36l25.7,23.6c2.07,1.86 4.93,5.25 7.29,6.55c1.87,1.03 70.74,0.45 79.27,0.46l-0.07,9.56l-7.82,-0.01l-61.65,0.02c-2.12,0 -12.97,0.51 -14.02,0c-1.03,-0.5 -2.53,-2.25 -3.46,-3.06l-13.07,-11.75l-40.59,-36.89l8.24,-5.13z" fill="#515151" id="svg_9" transform="matrix(1 0 0 1 0 0)"/>
  <path d="m522.96,398.66l95.12,-0.13l24.63,-0.01c2.64,-0.01 6.32,-0.49 8.86,-0.01c0.43,0.08 0.73,0.49 1.07,0.76c3.61,2.88 6.92,6.35 10.4,9.42l23.12,20.06c0.77,0.7 3.88,3.06 4.19,3.9c0.1,0.26 0.06,0.55 0.09,0.83l-2.27,1.37c-1.15,0.56 -5.47,3.17 -6.53,3.21c-0.75,0.02 -7.85,-6.16 -8.94,-7.07l-17.37,-14.98l-5.62,-5.13c-0.33,-0.3 -1.42,-1.46 -1.74,-1.59c-0.75,-0.32 -3.86,0.05 -4.79,0.06l-17.12,0.01l-102.9,-0.07c-0.97,-2.14 -0.22,-8.06 -0.2,-10.63z" fill="#515151" id="svg_10" transform="matrix(1 0 0 1 0 0)"/>
  <path d="m548.14,231.76l109.47,0.08l9.89,0.06c0.62,0 2.66,-0.21 3.19,0.02c0.65,0.27 2,2.06 2.55,2.62l10.13,10.89l14.85,14.96l83.55,84.67l7.27,7.62c0.58,0.64 1.8,1.71 2.01,2.55c0.52,2.04 0.05,5.43 0.05,7.58l0,22.18l0.13,87.73l-8.22,-4.88c-0.56,-0.32 -2.56,-1.14 -2.9,-1.56c-0.12,-0.15 -0.05,-80.81 -0.04,-89.22l0.08,-13.38c0.01,-0.78 0.28,-3.13 0.04,-3.78c-0.48,-1.29 -4.64,-4.63 -5.76,-5.75l-19.14,-19.61l0.2,116.46l-11.53,-5.62l-0.03,-7l-0.08,-97.72l-0.13,-14.36c-0.01,-0.74 0.22,-2.98 -0.05,-3.47c-0.79,-1.49 -3.51,-3.59 -4.78,-4.85l-14.8,-14.7l-19.79,-20.33c-0.58,-0.57 -0.67,-0.75 -1.5,-0.97c-2.34,-0.65 -6.91,-0.06 -9.46,-0.06l-29.21,-0.02l-141.13,0.02l0,-11.24l169.17,-0.35l-27.35,-27.3l-142.03,-0.01l-0.02,-11.03l25.37,-0.23z" fill="white" id="svg_11"/>
  <path d="m232.47,547.51l8.8,5.35c0.54,0.36 2.22,1.28 2.54,1.76c0.68,1.01 0.24,84.06 0.24,93.27l0.01,14.1c0,0.87 -0.29,3.25 0,3.86c0.98,2.1 4.69,5.15 6.41,6.94c5.91,6.12 12.04,12.11 17.54,18.59l0.47,-123.12l9.08,6.41c0.12,0.09 1.5,1.04 1.53,1.13c0.33,1.04 0.05,3.56 0.06,4.72l0.17,14.11l0.3,86.3l0.03,16.58c0,0.83 -0.29,3.4 0,4.09c0.57,1.32 2.24,2.9 3.21,3.98l7.93,8.38l24.8,25.34c0.22,0.22 0.37,0.53 0.64,0.66c1.16,0.54 36.69,0.01 40.97,0.02l145.76,0.11l0.05,10.94l-94.26,0.09l-81.33,0.02l19.91,19.74l7.63,7.43c1.05,1 2.44,2.72 3.64,3.46c1.19,0.73 129,0.21 144.21,0.25l0.09,10.84l-41.61,0.15l-80.34,-0.01l-21.69,-0.08c-1.29,0 -4.51,0.38 -5.64,-0.02c-0.35,-0.13 -1.68,-1.76 -2.02,-2.11l-6.96,-6.94l-77.56,-77.93c-11.64,-11.63 -22.69,-23.71 -35.02,-34.64l0.41,-123.77z" fill="white" id="svg_12"/>
  <path d="m136.64,486.12c2.95,1.57 5.73,3.76 8.5,5.64l16.39,10.99l6.79,4.32c0.33,0.21 1.92,1.06 2.07,1.31c0.23,0.37 -0.25,5.34 -0.29,6.24c-0.29,6.83 -0.52,13.54 -0.07,20.38c0.96,14.38 2.21,29 4.8,43.2c2.28,12.49 5.71,24.88 9.54,36.98c30.96,97.9 107.17,179.75 202.5,218c26.87,10.78 54.7,17.65 83.41,21.19c24.46,3.03 48.52,3.3 73.05,0.94l19.32,-2.63c1.95,-0.32 4.77,-1.39 6.64,-1.36c1.54,0.02 11.86,6.24 14.06,7.43l29.79,15.4c-7.56,3 -15.61,4.86 -23.54,6.62c-9.27,2.05 -18.6,3.88 -28.02,5.09c-3.49,0.49 -19.86,1.54 -21.75,2.71c-0.7,0.44 -1.64,1.7 -2.24,2.33l-5.95,6.22l-19.93,19.98l-22.08,-22.8c-1.29,-1.32 -4.42,-5.36 -6.04,-6.01c-1.29,-0.52 -4.02,-0.38 -5.49,-0.48l-13.55,-1.27c-11.64,-1.45 -23.45,-3.15 -34.85,-5.91c-18.05,-4.37 -35.95,-9.37 -53.27,-16.08c-48.76,-18.91 -93.66,-48.97 -130.52,-85.91c-50.98,-51.1 -86.95,-117.84 -102.22,-188.27c-2.75,-12.69 -4.74,-25.32 -6.08,-38.24l-0.92,-11.26c-0.06,-0.72 0,-2.74 -0.29,-3.35c-0.58,-1.19 -3.58,-3.37 -4.65,-4.32l-13.44,-11.91l-9.59,-9.2l27.92,-25.97z" fill="white" id="svg_13"/>
  <path d="m511.52,107.21c6.91,6.35 13.39,13.56 19.78,20.44c1.83,1.96 5.96,7.47 8.24,8.45c1.94,0.83 5.89,0.77 8.06,1l19.4,2.41l22.54,4.04c60,13.35 116.68,40.65 163.86,80.15c66.98,56.07 114.68,134.92 130.58,221.1c2.53,13.7 3.4,27.74 4.62,41.6c3.73,2.85 7,6.33 10.35,9.61l15.67,15.47c-6.84,7.15 -14.23,15.17 -22.08,21.2c-6.17,-6.15 -13.13,-10.48 -20.56,-14.92l-16.72,-9.51l-0.82,-21.29l-3.42,-27.96c-1.82,-11.95 -4.46,-23.6 -7.61,-35.26c-32.16,-118.89 -130.54,-214.43 -249.91,-244.2c-10.8,-2.69 -21.83,-5.21 -32.86,-6.76c-20.25,-2.85 -40.17,-4.3 -60.64,-3.41c-10.19,0.45 -20.52,1.25 -30.61,2.82l-11.03,1.9c-0.8,0.16 -3.22,0.93 -3.93,0.78c-0.78,-0.17 -2.18,-1.21 -2.97,-1.65l-8.23,-4.6l-32.27,-18.1c5.13,-2.43 10.97,-3.83 16.45,-5.21c11.19,-2.81 22.51,-4.75 33.92,-6.42l16.89,-1.97c1.08,-0.11 4.83,-0.05 5.63,-0.52c1.73,-1.02 4.16,-4.52 5.67,-6.11l22,-23.08z" fill="white" id="svg_14"/>
  <path d="m312.92,120.18c4.43,-0.48 9.38,-0.55 13.78,0.1c6.37,0.96 11.62,2.6 17.33,5.59l19.58,11.14l67.66,39.59l45.54,26.44c6.7,3.9 14.63,7.51 20.66,12.28c4.73,3.74 8.6,9.27 10.32,15.05c1.62,5.44 1.12,11.94 1.14,17.59l0.06,24.18l0.17,73.37l-0.07,72.53l-0.04,24.13c-0.02,5.75 0.4,11.85 -1.26,17.42c-1.74,5.86 -4.52,11.27 -9.2,15.34c-6.36,5.54 -14.78,9.4 -22.07,13.68l-26.38,15.84l-91.23,55.42l-11.66,7.14c-0.58,0.35 -2.8,1.42 -3.11,1.87c-0.36,0.51 0.26,25.73 -0.38,29.24c-0.44,2.46 -1.49,4.97 -2.72,7.14c-3.97,6.99 -9.46,10.12 -17.03,12.16c-4.15,0.54 -8.3,0.48 -12.32,-0.83c-6.76,-2.21 -12.57,-7.97 -15.59,-14.33l-0.35,-0.76c-1.95,-4.05 -1.34,-9 -1.42,-13.41l-0.33,-19.19l-141.93,-88.24c-12.61,-9.06 -20.54,-22.89 -22.91,-38.13c-1.63,-10.52 -0.7,-22.23 -0.7,-32.9l-0.06,-58.06l-0.09,-69.98c-0.01,-11.68 -0.92,-24.36 0.47,-35.93c0.93,-7.83 3.73,-15.39 8.43,-21.72c2.5,-3.36 5.62,-6.56 9.05,-8.94c8.01,-5.57 16.98,-10.21 25.32,-15.29l60.45,-36.4l43.97,-26.36c7.18,-4.24 14.25,-8.87 21.74,-12.54c4.86,-2.39 9.87,-3.45 15.18,-4.23z" fill="#515151" id="svg_15" transform="matrix(1 0 0 1 0 0)"/>
  <path d="m706.63,442.4c0.3,-0.04 0.87,-0.15 1.21,-0.11c1.79,0.18 4.3,1.97 5.89,2.84l13.89,7.53l95.18,51.53l24.66,14.56l18.79,10.79c5.27,3.01 10.47,5.81 14.8,10.14c7.19,7.19 11.66,17.59 13.34,27.54c1.31,7.82 0.63,16.49 0.61,24.43l-0.13,42.53l0.2,134.05c-0.01,4.93 0.22,10.02 -0.45,14.9c-1.42,10.33 -6.39,21.31 -13.86,28.65c-2.69,2.64 -5.64,4.99 -8.87,6.93l-22.94,12.35l-68.31,37.02l-33.49,18.52c-6.93,3.9 -14.03,8.57 -21.45,11.42c-7.52,2.9 -14.38,3.08 -22.32,2.96c-5.32,-0.72 -10.22,-1.92 -15.09,-4.18l-21.5,-11.15l-64.11,-32.79l-43.51,-22.04c-8.22,-4.12 -17.55,-7.81 -24.96,-13.29c-6.87,-5.1 -12.8,-13.23 -15.66,-21.27l-0.22,-0.65c-1.64,-4.57 -2.45,-9.06 -2.68,-13.91l0.02,-57.77l0.05,-88.87l-0.04,-44.47c-0.08,-10.5 -1.05,-21.78 0.69,-32.17c2.02,-12.05 9.73,-24.91 19.7,-32.03c9.19,-6.57 19.77,-10.86 29.94,-15.68l38.88,-18.65l64.93,-31.75l36.81,-17.91z" fill="#ffffff" id="svg_19" transform="matrix(1 0 0 1 0 0)"/>
  <path d="m700.31,564.41c1.55,-0.67 3.09,-0.5 4.74,-0.5l11.28,0.03l0.15,24.16l-15.95,-0.03l-0.22,-23.66z" fill="#1E1E1E" id="svg_20"/>
  <path d="m793.96,801.52l0.68,0.19c3.21,-0.43 20.28,-19.4 23.82,-23.13l0.34,0.35c3.88,3.91 10.15,7.36 14.86,10.4c1.08,0.7 4.12,2.17 4.63,3.18l-15.77,14.83c-2.56,2.44 -5.59,6.01 -8.66,7.71c-4.86,-2.3 -9.45,-4.87 -14.07,-7.61c-2.41,-1.43 -5.21,-2.92 -7.1,-4.99l0.26,-0.66l1.01,-0.27z" fill="#1E1E1E" id="svg_21"/>
  <path d="m623.88,679.65l37.78,-0.16l-4.84,12.96l-62.85,0.17l-0.01,-12.46l29.27,-0.04l0.65,-0.47z" fill="#1E1E1E" id="svg_22"/>
  <path d="m668.21,631.99l-73.9,0.02l-0.26,-12.46l73.9,0.03c0.57,3.96 0.46,8.41 0.26,12.41z" fill="#1E1E1E" id="svg_23"/>
  <path d="m798,679.5l0.33,-0.45c0.73,-1.39 0.38,-4.01 0.38,-5.63l-0.02,-13.91l16.71,0.09l0.03,32.6l-66.5,0.76c5.8,21.24 16.64,39.22 31.97,54.99c1.84,1.89 5.69,4.11 4.52,6.93c-6.67,-4.48 -12.88,-10.56 -18.4,-16.38c-16.1,-16.99 -28.44,-36.53 -35.26,-59.01l66.24,0.01z" fill="#1E1E1E" id="svg_24"/>
  <path d="m798.09,618.58c0.88,-1.9 0.58,-4.18 0.58,-6.25l-0.03,-13.35l16.9,-0.09l0.01,32.63l-99.62,0.39l-0.01,16.12l-16.92,0.01l1.34,-29l72.39,0.03l17.32,-0.01c2.23,0 5.28,0.4 7.36,-0.25l0.68,-0.23z" fill="#1E1E1E" id="svg_25" transform="matrix(1 0 0 1 0 0)"/>
  <path d="m667.95,619.58c-2.6,-1.46 -68.82,-0.55 -79.12,-0.49l-0.02,-30.68l79.03,-0.02l-0.1,-35.11l32.35,0.07l0.22,11.06l0.22,23.66l15.95,0.03l81.58,0.07l0.03,30.41l-0.68,0.23c-2.08,0.65 -5.13,0.25 -7.36,0.25l-17.32,0.01l-72.39,-0.03l-1.34,29l16.92,-0.01l82.29,0.06l0.01,20.89c-0.01,3.32 0.41,7.27 -0.22,10.52l-66.24,-0.01c6.82,22.48 19.16,42.02 35.26,59.01c5.52,5.82 11.73,11.9 18.4,16.38c9.54,8.98 22.92,15.53 34.41,21.79l-1.37,1.91c-3.54,3.73 -20.61,22.7 -23.82,23.13l-0.68,-0.19c-2.51,-2.75 -7.8,-5.33 -11.02,-7.48l-12.46,-8.96c-28.26,-21.05 -49.46,-46.02 -63.09,-78.72c-1.8,5.87 -3.21,11.8 -5.55,17.49c-17.57,42.77 -53.54,71.37 -92.91,93.21c-5.81,-4.63 -11.07,-11.52 -17.38,-15.26l-0.32,0.05c-1.06,-0.04 -0.78,0.1 -1.3,-0.48l-20.37,-24.79c15.16,-7.82 30.05,-16.19 43.42,-26.89c18.9,-15.12 34.21,-35.03 43.84,-57.24l4.84,-12.96l-37.78,0.16c-3.33,-0.45 -7.26,-0.05 -10.65,-0.04l-24.63,0.24l-0.03,-31.33l59.35,0.15l11.88,-0.08c2.39,-0.02 5.07,0.23 7.4,-0.3l1.01,-16.3c0.2,-4 0.31,-8.45 -0.26,-12.41z" fill="#515151" id="svg_26" stroke="#515151" stroke-width="3"/>
  <path d="m591.55,801.8c38.73,-17.61 75.46,-51.33 92.7,-90.48c3.84,-8.71 6.56,-17.69 8.73,-26.94c0.4,-1.72 0.6,-3.79 1.65,-5.22c1.7,-0.05 3.01,-0.07 4.62,0.52l8.14,26.68c-1.8,5.87 -3.21,11.8 -5.55,17.49c-17.57,42.77 -53.54,71.37 -92.91,93.21c-5.81,-4.63 -11.07,-11.52 -17.38,-15.26z" fill="#1E1E1E" id="svg_27"/>
  <text fill="#000000" font-family="Sans-serif" font-size="24" id="svg_28" stroke-width="0" text-anchor="middle" transform="matrix(14.5774 0 0 15.1772 -3152.32 -4501.63)" x="239.81" xml:space="preserve" y="327.17">A</text>
  <text fill="#ffffff" font-family="Sans-serif" font-size="24" id="svg_29" stroke-width="0" style="cursor: move;" text-anchor="middle" transform="matrix(1 0 0 1 0 0) matrix(14.5774 0 0 15.1772 -3152.32 -4501.63)" x="238.62" xml:space="preserve" y="326.52">A</text>
 </g>
</svg>